<svg xmlns="http://www.w3.org/2000/svg" width="5.29in" height="0.65in" viewBox="0 0 380.97 46.83"><path d="M9.37,49.69,40.23,6.41c1.4-2-1.85-3.85-3.24-1.9L6.13,47.8c-1.4,2,1.85,3.84,3.24,1.89Z" transform="translate(-5.79 -3.69)" fill="#010101"/><path d="M71.7,47.8,40.84,4.51c-1.39-1.95-4.64-.08-3.24,1.9L68.46,49.69c1.39,2,4.64.08,3.24-1.89Z" transform="translate(-5.79 -3.69)" fill="#010101"/><path d="M72.31,49.69,103.17,6.41c1.4-2-1.85-3.85-3.24-1.9L69.07,47.8c-1.4,2,1.85,3.84,3.24,1.89Z" transform="translate(-5.79 -3.69)" fill="#010101"/><path d="M134.64,47.8,103.78,4.51c-1.39-1.95-4.64-.08-3.23,1.9L131.4,49.69c1.39,2,4.65.08,3.24-1.89Z" transform="translate(-5.79 -3.69)" fill="#010101"/><path d="M135.25,49.69,166.11,6.41c1.41-2-1.84-3.85-3.24-1.9L132,47.8c-1.41,2,1.84,3.84,3.23,1.89Z" transform="translate(-5.79 -3.69)" fill="#010101"/><path d="M197.58,47.8,166.73,4.51c-1.39-1.95-4.65-.08-3.24,1.9l30.86,43.28c1.39,2,4.64.08,3.23-1.89Z" transform="translate(-5.79 -3.69)" fill="#010101"/><path d="M198.2,49.69,229.06,6.41c1.4-2-1.85-3.85-3.24-1.9L195,47.8c-1.4,2,1.85,3.84,3.24,1.89Z" transform="translate(-5.79 -3.69)" fill="#010101"/><path d="M260.53,47.8,229.67,4.51c-1.39-1.95-4.64-.08-3.24,1.9l30.86,43.28c1.39,2,4.64.08,3.24-1.89Z" transform="translate(-5.79 -3.69)" fill="#010101"/><path d="M261.14,49.69,292,6.41c1.4-2-1.85-3.85-3.24-1.9L257.9,47.8c-1.4,2,1.85,3.84,3.24,1.89Z" transform="translate(-5.79 -3.69)" fill="#010101"/><path d="M323.47,47.8,292.61,4.51c-1.39-1.95-4.64-.08-3.24,1.9l30.86,43.28c1.39,2,4.64.08,3.24-1.89Z" transform="translate(-5.79 -3.69)" fill="#010101"/><path d="M324.08,49.69,354.94,6.41c1.4-2-1.85-3.85-3.24-1.9L320.84,47.8c-1.4,2,1.85,3.84,3.24,1.89Z" transform="translate(-5.79 -3.69)" fill="#010101"/><path d="M386.41,47.8,355.55,4.51c-1.39-1.95-4.64-.08-3.23,1.9l30.85,43.28c1.39,2,4.65.08,3.24-1.89Z" transform="translate(-5.79 -3.69)" fill="#010101"/></svg>